HIERARCHY
ROOT hips
{
  OFFSET 0 10.074487846421558 1.314567655973056
  CHANNELS 6 Xposition Yposition Zposition Yrotation Xrotation Zrotation
  JOINT spine
  {
    OFFSET -7.042773748992335e-31 0.5690686926897363 0
    CHANNELS 3 Yrotation Xrotation Zrotation
    JOINT chest
    {
      OFFSET 0 1.2435964857087873 0
      CHANNELS 3 Yrotation Xrotation Zrotation
      JOINT upperChest
      {
        OFFSET 0 1.194994586872362 0
        CHANNELS 3 Yrotation Xrotation Zrotation
        JOINT neck
        {
          OFFSET 0 1.515103653293861 0
          CHANNELS 3 Yrotation Xrotation Zrotation
          JOINT head
          {
            OFFSET 0 0.8111851616465653 0
            CHANNELS 3 Yrotation Xrotation Zrotation
            JOINT leftEye
            {
              OFFSET 0.27141371691966987 0.7490044407698551 0.18219031050045686
              CHANNELS 3 Yrotation Xrotation Zrotation
              End Site
              {
                OFFSET 0.27141371691966987 0.7490044407698551 0.18219031050045686
              }
            }
            JOINT rightEye
            {
              OFFSET -0.2714136877644943 0.7490044019380786 0.18219040411850668
              CHANNELS 3 Yrotation Xrotation Zrotation
              End Site
              {
                OFFSET -0.2714136877644943 0.7490044019380786 0.18219040411850668
              }
            }
          }
        }
        JOINT leftShoulder
        {
          OFFSET 0.4137993136083964 1.1593397335613034 0
          CHANNELS 3 Yrotation Xrotation Zrotation
          JOINT leftUpperArm
          {
            OFFSET 1.0096991868951026 0 0
            CHANNELS 3 Yrotation Xrotation Zrotation
            JOINT leftLowerArm
            {
              OFFSET 2.418380967671622 0 0
              CHANNELS 3 Yrotation Xrotation Zrotation
              JOINT leftHand
              {
                OFFSET 2.361538296260114 0 0
                CHANNELS 3 Yrotation Xrotation Zrotation
                JOINT leftIndexProximal
                {
                  OFFSET 0.7243699271447109 0.08118285989887508 0.2022042461579805
                  CHANNELS 3 Yrotation Xrotation Zrotation
                  JOINT leftIndexIntermediate
                  {
                    OFFSET 0.36553107045252053 -0.010567764853200323 -0.014102670024158437
                    CHANNELS 3 Yrotation Xrotation Zrotation
                    JOINT leftIndexDistal
                    {
                      OFFSET 0.22505120770060527 -0.007821041598631284 -0.007511611613336286
                      CHANNELS 3 Yrotation Xrotation Zrotation
                      End Site
                      {
                        OFFSET 0.22505120770060527 -0.007821041598631284 -0.007511611613336286
                      }
                    }
                  }
                }
                JOINT leftLittleProximal
                {
                  OFFSET 0.6721063881632002 0.08118279568569564 -0.3209324945517917
                  CHANNELS 3 Yrotation Xrotation Zrotation
                  JOINT leftLittleIntermediate
                  {
                    OFFSET 0.34587329423120616 5.3042709780015684e-8 -5.929537746918179e-8
                    CHANNELS 3 Yrotation Xrotation Zrotation
                    JOINT leftLittleDistal
                    {
                      OFFSET 0.1992782500022232 0.0030983716482184676 0.0038310952896712935
                      CHANNELS 3 Yrotation Xrotation Zrotation
                      End Site
                      {
                        OFFSET 0.1992782500022232 0.0030983716482184676 0.0038310952896712935
                      }
                    }
                  }
                }
                JOINT leftMiddleProximal
                {
                  OFFSET 0.7301229696860206 0.08118412848995638 0.022516891543707507
                  CHANNELS 3 Yrotation Xrotation Zrotation
                  JOINT leftMiddleIntermediate
                  {
                    OFFSET 0.4076277831942017 -0.000001240188283180288 -1.6203245635504349e-7
                    CHANNELS 3 Yrotation Xrotation Zrotation
                    JOINT leftMiddleDistal
                    {
                      OFFSET 0.2514739255593972 0.0000013850839168938478 -1.8644847207816007e-8
                      CHANNELS 3 Yrotation Xrotation Zrotation
                      End Site
                      {
                        OFFSET 0.2514739255593972 0.0000013850839168938478 -1.8644847207816007e-8
                      }
                    }
                  }
                }
                JOINT leftRingProximal
                {
                  OFFSET 0.7218060861525873 0.08118280646416753 -0.1494689818508163
                  CHANNELS 3 Yrotation Xrotation Zrotation
                  JOINT leftRingIntermediate
                  {
                    OFFSET 0.3781267508900358 0.000001373626195677602 -1.4143108284514483e-7
                    CHANNELS 3 Yrotation Xrotation Zrotation
                    JOINT leftRingDistal
                    {
                      OFFSET 0.21814333268795483 -0.0027137626495670197 -0.004991775417842292
                      CHANNELS 3 Yrotation Xrotation Zrotation
                      End Site
                      {
                        OFFSET 0.21814333268795483 -0.0027137626495670197 -0.004991775417842292
                      }
                    }
                  }
                }
                JOINT leftThumbProximal
                {
                  OFFSET 0.10743676110519984 -0.16423092885053192 -0.07708859146227388
                  CHANNELS 3 Yrotation Xrotation Zrotation
                  JOINT leftThumbIntermediate
                  {
                    OFFSET 0.40350402100066307 -0.01735099334274981 0.315629965828783
                    CHANNELS 3 Yrotation Xrotation Zrotation
                    JOINT leftThumbDistal
                    {
                      OFFSET 0.2320014489535681 -0.01842351809041043 0.21271298411519196
                      CHANNELS 3 Yrotation Xrotation Zrotation
                      End Site
                      {
                        OFFSET 0.2320014489535681 -0.01842351809041043 0.21271298411519196
                      }
                    }
                  }
                }
              }
            }
          }
        }
        JOINT rightShoulder
        {
          OFFSET -0.41379931360839656 1.1593397335613034 0
          CHANNELS 3 Yrotation Xrotation Zrotation
          JOINT rightUpperArm
          {
            OFFSET -1.0096991868951024 0 0
            CHANNELS 3 Yrotation Xrotation Zrotation
            JOINT rightLowerArm
            {
              OFFSET -2.4183809676716232 0 0
              CHANNELS 3 Yrotation Xrotation Zrotation
              JOINT rightHand
              {
                OFFSET -2.3615382962601132 0 0
                CHANNELS 3 Yrotation Xrotation Zrotation
                JOINT rightIndexProximal
                {
                  OFFSET -0.7243699271447109 0.08118285989887508 0.2022042461579805
                  CHANNELS 3 Yrotation Xrotation Zrotation
                  JOINT rightIndexIntermediate
                  {
                    OFFSET -0.36553107045252053 -0.010567764853200323 -0.014102670024158437
                    CHANNELS 3 Yrotation Xrotation Zrotation
                    JOINT rightIndexDistal
                    {
                      OFFSET -0.22505120770060527 -0.007821041598631284 -0.007511611613336286
                      CHANNELS 3 Yrotation Xrotation Zrotation
                      End Site
                      {
                        OFFSET -0.22505120770060527 -0.007821041598631284 -0.007511611613336286
                      }
                    }
                  }
                }
                JOINT rightLittleProximal
                {
                  OFFSET -0.6721063881632002 0.08118279568569564 -0.3209324945517917
                  CHANNELS 3 Yrotation Xrotation Zrotation
                  JOINT rightLittleIntermediate
                  {
                    OFFSET -0.34587329423120616 5.3042709780015684e-8 -5.929537746918179e-8
                    CHANNELS 3 Yrotation Xrotation Zrotation
                    JOINT rightLittleDistal
                    {
                      OFFSET -0.1992782500022232 0.0030983716482184676 0.0038310952896712935
                      CHANNELS 3 Yrotation Xrotation Zrotation
                      End Site
                      {
                        OFFSET -0.1992782500022232 0.0030983716482184676 0.0038310952896712935
                      }
                    }
                  }
                }
                JOINT rightMiddleProximal
                {
                  OFFSET -0.7301229696860206 0.08118412848995638 0.022516891543707507
                  CHANNELS 3 Yrotation Xrotation Zrotation
                  JOINT rightMiddleIntermediate
                  {
                    OFFSET -0.4076277831942017 -0.000001240188283180288 -1.6203245635504349e-7
                    CHANNELS 3 Yrotation Xrotation Zrotation
                    JOINT rightMiddleDistal
                    {
                      OFFSET -0.2514739255593972 0.0000013850839168938478 -1.8644847207816007e-8
                      CHANNELS 3 Yrotation Xrotation Zrotation
                      End Site
                      {
                        OFFSET -0.2514739255593972 0.0000013850839168938478 -1.8644847207816007e-8
                      }
                    }
                  }
                }
                JOINT rightRingProximal
                {
                  OFFSET -0.7218060861525873 0.08118280646416753 -0.1494689818508163
                  CHANNELS 3 Yrotation Xrotation Zrotation
                  JOINT rightRingIntermediate
                  {
                    OFFSET -0.3781267508900358 0.000001373626195677602 -1.4143108284514483e-7
                    CHANNELS 3 Yrotation Xrotation Zrotation
                    JOINT rightRingDistal
                    {
                      OFFSET -0.21814333268795483 -0.0027137626495670197 -0.004991775417842292
                      CHANNELS 3 Yrotation Xrotation Zrotation
                      End Site
                      {
                        OFFSET -0.21814333268795483 -0.0027137626495670197 -0.004991775417842292
                      }
                    }
                  }
                }
                JOINT rightThumbProximal
                {
                  OFFSET -0.10743676110519984 -0.16423092885053192 -0.07708859146227388
                  CHANNELS 3 Yrotation Xrotation Zrotation
                  JOINT rightThumbIntermediate
                  {
                    OFFSET -0.40350402100066307 -0.01735099334274981 0.315629965828783
                    CHANNELS 3 Yrotation Xrotation Zrotation
                    JOINT rightThumbDistal
                    {
                      OFFSET -0.2320014489535681 -0.01842351809041043 0.21271298411519196
                      CHANNELS 3 Yrotation Xrotation Zrotation
                      End Site
                      {
                        OFFSET -0.2320014489535681 -0.01842351809041043 0.21271298411519196
                      }
                    }
                  }
                }
              }
            }
          }
        }
      }
    }
  }
  JOINT leftUpperLeg
  {
    OFFSET 0.8487163290887698 -0.43932186100277326 0
    CHANNELS 3 Yrotation Xrotation Zrotation
    JOINT leftLowerLeg
    {
      OFFSET 0 -3.882816707004296 0
      CHANNELS 3 Yrotation Xrotation Zrotation
      JOINT leftFoot
      {
        OFFSET 0 -4.570431027442807 0.004629272230691511
        CHANNELS 3 Yrotation Xrotation Zrotation
        JOINT leftToes
        {
          OFFSET 0 -0.698875637876343 1.214565366696912
          CHANNELS 3 Yrotation Xrotation Zrotation
          End Site
          {
            OFFSET 0 -0.698875637876343 1.214565366696912
          }
        }
      }
    }
  }
  JOINT rightUpperLeg
  {
    OFFSET -0.8487163290887698 -0.43932186100277326 0
    CHANNELS 3 Yrotation Xrotation Zrotation
    JOINT rightLowerLeg
    {
      OFFSET 0 -3.882816707004296 0
      CHANNELS 3 Yrotation Xrotation Zrotation
      JOINT rightFoot
      {
        OFFSET 0 -4.570431027442807 0.004629272230691511
        CHANNELS 3 Yrotation Xrotation Zrotation
        JOINT rightToes
        {
          OFFSET 0 -0.698875637876343 1.214565366696912
          CHANNELS 3 Yrotation Xrotation Zrotation
          End Site
          {
            OFFSET 0 -0.698875637876343 1.214565366696912
          }
        }
      }
    }
  }
}
MOTION
Frames: 4
Frame Time: 0.03333333333333333
0.5027276277542114 -5.9854947739117925 -0.8446580171585083 -6.671270656547618 53.51965619407284 -11.87925271012504 -5.142029189794991 22.257705916999956 4.485751875061264 -5.762732458263364 20.609979236563778 1.7593510669511803 0 0 0 1.251127937542376 -5.752631770554603 3.418360339091718 11.735109335039333 -27.675772441162916 -8.594162611465858 0 0 0 0 0 0 -22.44377418930524 2.3820392780392106 0.4630524886325737 -43.18540590179168 -42.400551233372994 5.561982460719594 -39.80552947582671 -3.4841938645001256 1.796931994824509 13.142218987991965 24.491272279003837 79.27915575952646 0.42982711117840455 0.028556928720658747 -2.554008598977073 0.9238810880039303 0.06961020354586382 -8.61870650292211 -1.5866392940190552 0.20768100094418257 14.912013552344076 20.732906931499414 -1.2784010531264787 9.25121113583312 -2.9780588794630263 0.0883366991416735 -10.577375468675463 -0.060834950575994855 0.00029717834060165955 0.565299280190282 -6.324692952981684 -1.198356439284509 -4.74885779237962 0.8094251083826797 0.05335810918441762 -7.544286606639376 -1.5866421744193373 0.20768603023760718 14.912022681432699 6.225140659564425 0.47990985709321954 1.7715500933822494 0.5312186653165578 0.022920279519030428 -4.943218439352853 -0.9510882060158916 0.07382388661686119 8.87459800388657 0.5381147877629092 -21.47563638349207 -7.109107813146255 -0.9321972159729572 -1.9873278113780433 6.706500582170676 -1.8111967449344777 -9.416560760049634 -1.9895062063196993 13.896640675783189 1.881006553370515 -1.4718409495798603 54.06303319086125 -44.29661168364016 -5.8780010849883615 73.00474936679392 -4.930851296936049 -4.741263868068417 -14.962251661210589 32.86693767284529 47.00227658624469 -4.029525487206531 1.2152312831591725 17.454604738935195 -3.398385590046968 1.007597258282845 33.02086313581052 -1.5297450944482476 0.1906333460359105 14.206538635126769 -3.3069995771380807 0.7903473202481225 38.71115910691817 -3.1315549766860635 0.8435628400787222 30.145804602750665 -2.395757670453789 0.478772590797231 22.59901165243303 -4.793091668047426 2.094364380759702 31.758077057967085 -3.256960965306091 0.9183709573060326 31.48612384709912 -1.6390993710564254 0.2193809294595632 15.245358954141011 -4.416908386296243 1.8766924637015516 39.07625540661292 -3.7175044960142154 1.2293750208175653 36.5876327001248 -1.694785199341971 0.234835127640665 15.77626915241374 -5.5646680460524145 -10.605352186496944 -6.12909307337276 -22.595367785926932 16.57014651729484 -4.61921053404575 -35.35441476758205 1.4547188168209095 -6.963447792226809 2.3520816755230562 -33.93490162793535 -3.275085741164188 51.50175695483407 67.04147511430344 52.44379485475193 8.932232795405579 25.07351067654376 7.864159655738058 24.9383804462173 41.658169398018906 33.809697661761035 -159.7576936921431 -74.20057550696968 156.04058521534637 177.36603315419322 47.1274371491893 173.73301212331063 0.20237180808062416 13.405915956435434 -1.5345048479873378 -109.95263970860644 -75.125332556727 114.44524199797516
0.46556147933006287 -6.068427722977955 -0.7956321239471436 -3.6570493469917555 53.461767209641074 -8.789537852314073 -5.226737025785734 21.86211731633495 4.400376429614191 -5.845664963469753 20.43445412574767 2.2524803291340896 0 0 0 1.0923958637927544 -6.5106377176514805 3.8051125039245965 10.979943786092948 -26.16637925339996 -8.822058769669859 0 0 0 0 0 0 -22.9452745754288 1.8408212852448462 -2.0481888012869334 -43.10199706220949 -41.51390583154649 2.3052787365028258 -39.18322308945326 -3.4415868284984406 1.7513372486360792 11.586496461006533 27.223339560903256 81.17322110977668 0.4304268415800597 0.028608155145807963 -2.558010550066474 0.9242576636380951 0.06966213036418493 -8.62210695404376 -1.5863553442646123 0.20760689557308531 14.909244245990841 20.730838150969976 -1.2759496868764992 9.244926956439873 -2.9777891676356916 0.08838067520685458 -10.58015033364835 -0.06044125443314169 0.00030167229887600766 0.5618963405950297 -6.323213745484147 -1.1983094714617444 -4.7504314529986145 0.8098524227655874 0.053417589885946005 -7.548136300410936 -1.5863427558472667 0.20760837634647378 14.909332900328844 6.2247529422569965 0.48044994125202045 1.7658505324229299 0.5316968747389075 0.02296548116763272 -4.947818586088581 -0.9507117367428612 0.0737565851853383 8.87098217279353 0.5383773717530909 -21.473421626367642 -7.10675110206286 -0.932590847845891 -1.985521207913632 6.705239661558818 -1.8055683405274803 -9.414612670310728 -1.988400030426413 13.083554087708677 2.6415938088079436 -6.551087256100405 66.28703750242042 -49.2492865106184 -20.601994674024265 67.84537725315619 -4.822065823694885 -4.236247182274194 -16.914462415867646 33.447750202500245 51.87713637752437 -4.04303687656702 1.2216004872547641 17.471919869376656 -3.401602066108608 1.009698614110631 33.056356468302056 -1.534035072658348 0.19172280729392527 14.247095923386924 -3.2946942897594216 0.7763201624561193 38.77788752759991 -3.1341760332283304 0.8450884857908687 30.173666359710637 -2.3989769200840776 0.4801063920113982 22.631265196805753 -4.797992679235739 2.0992706744870873 31.79865717484272 -3.2599135930966336 0.9201638992824116 31.51792874013679 -1.6435282275527272 0.2205896684085757 15.287373743536845 -4.415543566071083 1.8754965395363061 39.133231331201785 -3.7213609343413583 1.2322513008062528 36.631654038167376 -1.6983597280233684 0.23584797853350792 15.810613019308963 -5.5736011087959785 -10.589185154563383 -6.145947430101387 -22.629482504512392 16.59257196698032 -4.619775647224496 -35.41010897708962 1.4678942678760563 -6.978855820175211 2.4552907766280527 -28.74392560824196 -3.89125183673315 39.82181800535527 63.10748293043559 41.06263475833192 9.214671488025743 27.818944505031933 10.171430646668547 23.153810476067356 41.1990089537363 31.374392694348344 -163.17902995770024 -76.95692369016034 158.6304695371971 -178.08088007973848 47.136136596488484 177.255645003817 -0.6697420420036211 15.33047899683196 -5.513753554929945 -103.84275495279192 -58.739481166991 112.13585947064907
0.4458375573158264 -6.098028104829151 -0.7791920304298401 -2.5285689219462437 53.643592657080525 -7.594678867993878 -5.1275584952069595 21.674173284586285 4.344880327174614 -5.701581773641305 20.364542488940067 2.461824955604086 0 0 0 0.9800002231452049 -6.894426117854518 3.8832680225909373 10.385486150444338 -25.666419022402277 -8.679403010503627 0 0 0 0 0 0 -22.88308235456343 1.6857511804580154 -2.7647320553228223 -43.56027889653819 -41.39488283491723 1.1832621983162088 -39.04532129873029 -3.4320691312300884 1.7413209868865442 11.029318344098359 28.376580080962654 81.80234986326874 0.4307621784342928 0.028627988710290823 -2.561285931562802 0.9243840608799274 0.06968405502082659 -8.62338830708234 -1.586158208980185 0.20754891862593075 14.907512947385934 20.730456229964812 -1.2744137945988667 9.240931720789545 -2.977600596536112 0.0884180278483355 -10.581776820226725 -0.06032804944874618 0.00029639374325638617 0.5605796976180983 -6.322551823218241 -1.1985052418919493 -4.752749888448645 0.8099624368171022 0.05342418662425194 -7.549410918368047 -1.5861620495147626 0.20755925735901337 14.907693556171061 6.224763443726331 0.4808481873101047 1.7619400970283319 0.5319430711269201 0.02298402573302978 -4.949793078017681 -0.9505634138679082 0.07374017670948195 8.869579050311357 0.5395015316980429 -21.47436477482861 -7.1076727406665245 -0.9327492835554968 -1.984862766688158 6.704753659876089 -1.8034100076806763 -9.413870997095179 -1.987989584292868 12.81074619428413 2.8905140050820943 -8.27544059269895 70.0141082060705 -50.57039527761409 -25.70965457640255 65.91843191489288 -4.769850622826306 -4.050427135031883 -18.192192905309792 33.671574910630795 50.61398231054765 -4.040513751184828 1.2203564700396226 17.468640890001293 -3.4010519556034198 1.0093354905044056 33.04980163396273 -1.5332287547333934 0.19151405847000788 14.239633847150168 -3.2967924395244292 0.7789420760011327 38.76551808874543 -3.133696049996804 0.8448034544823152 30.16851775259122 -2.3983909367268335 0.4798633247973719 22.625320621744237 -4.797071307904342 2.098321068048763 31.791074422420344 -3.2593877883714018 0.9198348338432846 31.51207318520081 -1.642664725448505 0.2203599882570635 15.279646424423332 -4.415739168368028 1.8757128736149111 39.12263308885478 -3.7206694638715874 1.2317350753031255 36.62355016854411 -1.6976831166516766 0.23565467720759486 15.80429183235217 -5.571877107065638 -10.592021033279844 -6.1429502963685545 -22.623193989568122 16.58850429841135 -4.61965839973327 -35.39983741145608 1.4654454831263626 -6.976079275668881 2.5433107874353955 -27.16765651650005 -4.073235900906288 36.32758041635215 61.54667438738224 37.735674775079055 9.248191767198428 28.659795180100843 11.01164576654582 22.673765680508353 41.128115335913556 30.68231186782347 -164.40379430859528 -78.14706737136507 159.54742021091585 -176.71759707802778 47.42671787229658 178.29585904003184 -0.972883092437204 16.44724034180969 -6.8050078896505255 -115.10281790835225 -58.03785544191237 116.68663415975078
0.36926811933517456 -6.177606266068775 -0.7383109331130981 1.0489228653656006 54.63641981983427 -3.7763986132983907 -4.15379843624361 21.077380776569143 4.216570670858154 -4.628187202187091 20.293956124623346 3.238314811182636 0 0 0 0.45023182115257676 -8.233324459141617 3.82742060180865 7.422549171775393 -24.311330600100852 -7.425279976733845 0 0 0 0 0 0 -22.329484934049088 1.2997278465973754 -4.468970838627758 -46.65817981057326 -41.69102948644268 -1.810366819126647 -38.40941677532626 -3.3878849548529613 1.69528571502522 9.01931731714099 32.57352951432368 83.4897897134992 0.4317417206965852 0.028706212395366408 -2.56887199203401 0.9245235831989186 0.06970652662662535 -8.624721843659087 -1.5859781548877068 0.20750695003983505 14.905791549287773 20.73167144356156 -1.2713894088954696 9.232907547475273 -2.9772665474841684 0.08848306813540383 -10.584824618387275 -0.06015702801255382 0.000298043604548765 0.5592332807397408 -6.321288472171801 -1.1991687692556834 -4.759364510089719 0.8100272638037732 0.053437736951724844 -7.550075984330413 -1.5859949038865397 0.20750904446704696 14.906003616754164 6.225751324971461 0.48175033771871 1.753768375375436 0.5321802816199627 0.023004276178332585 -4.952332233865974 -0.9503869703630119 0.07371599755299733 8.868120359985413 0.5434501691589199 -21.48032656859262 -7.113246047400143 -0.9328714679375547 -1.9841355557140394 6.704263441634402 -1.8012255171532885 -9.413119805775954 -1.987552760302033 12.527820987222167 3.698972136051685 -13.244599228645063 78.82602366608809 -54.30165776939052 -40.469210354894535 60.22615983501219 -4.579618492540203 -3.513112304182816 -23.30082760768929 34.174827670571446 40.13333587589514 -4.088784032666099 1.2434169969136022 17.53083292416911 -3.4126902899898246 1.016910820930288 33.17747205281658 -1.5486171986575545 0.19544664234878195 14.385510204260468 -3.2534364499344957 0.7276276042265025 39.004425831893165 -3.143122996992464 0.8502985159877416 30.268751346833806 -2.4100323556979304 0.4847299002753722 22.74132984991915 -4.814547345761619 2.1159591515726968 31.9369240749238 -3.2699866746620163 0.92638391423704 31.62660728238986 -1.6585513729244845 0.22471006449770162 15.43068713915265 -4.4109136777178515 1.871088711810097 39.327500849121 -3.7345182163918 1.2420511714261058 36.781935526820824 -1.7106273670892664 0.23933263227032445 15.92776371092621 -5.603771763223408 -10.533842558271843 -6.203515916597823 -22.74610157666541 16.66880635972198 -4.621486908075333 -35.60020911236981 1.512954611165388 -7.0312468863012105 2.968329437112391 -23.010536727306427 -4.296861745875464 27.94395885771756 56.04635430416652 29.810887897405905 9.2386013841168 31.110126049991283 13.579224294539944 21.86416429864069 40.27160833229721 29.78703637777198 -169.49724357285504 -81.841921656904 163.57041644073513 -172.12131320770266 48.628356717607765 -178.2798463482495 -1.4775290485948718 18.93446729741329 -9.172572561571021 -59.748206385206664 35.65862611130622 -61.81723407992228
